<svg xmlns="http://www.w3.org/2000/svg" viewBox="0 0 400 300">
  <defs>
    <radialGradient id="bg" cx="0.5" cy="0.32" r="0.95">
      <stop offset="0%" stop-color="#FFF3E0"/>
      <stop offset="100%" stop-color="#FFCC80"/>
    </radialGradient>
    <linearGradient id="bun" x1="0" y1="0" x2="0" y2="1">
      <stop offset="0%" stop-color="#FFC46B"/>
      <stop offset="100%" stop-color="#E8A04B"/>
    </linearGradient>
    <linearGradient id="sos" x1="0" y1="0" x2="0" y2="1">
      <stop offset="0%" stop-color="#C4444F"/>
      <stop offset="100%" stop-color="#9C2F3B"/>
    </linearGradient>
  </defs>
  <rect width="400" height="300" rx="28" fill="url(#bg)"/>
  <circle cx="72" cy="52" r="42" fill="#FFFFFF" opacity="0.22"/>
  <circle cx="340" cy="70" r="56" fill="#FFFFFF" opacity="0.18"/>
  <circle cx="320" cy="248" r="34" fill="#FFFFFF" opacity="0.15"/>
  <ellipse cx="200" cy="246" rx="132" ry="16" fill="#6D4016" opacity="0.18"/>
  <g>
    <rect x="86" y="118" width="228" height="40" rx="18" fill="url(#bun)"/>
    <ellipse cx="200" cy="122" rx="114" ry="11" fill="#FFD98A" opacity="0.8"/>
    <rect x="86" y="176" width="228" height="42" rx="16" fill="url(#bun)"/>
    <ellipse cx="200" cy="213" rx="114" ry="10" fill="#C77E2E" opacity="0.45"/>
    <rect x="108" y="150" width="184" height="34" rx="16" fill="url(#sos)"/>
    <path d="M108 158 q92 -14 184 0" fill="none" stroke="#A63441" stroke-width="4" opacity="0.5"/>
    <circle cx="122" cy="132" r="3" fill="#FFF1D6"/>
    <circle cx="144" cy="142" r="2.5" fill="#FFF1D6"/>
    <circle cx="266" cy="133" r="3" fill="#FFF1D6"/>
    <circle cx="286" cy="141" r="2.5" fill="#FFF1D6"/>
    <circle cx="202" cy="128" r="2.5" fill="#FFF1D6"/>
    <circle cx="168" cy="130" r="2" fill="#FFF1D6"/>
    <circle cx="238" cy="130" r="2" fill="#FFF1D6"/>
    <path d="M92 163 l30 12 M120 163 l28 12 M148 163 l28 12 M177 163 l26 12 M204 163 l26 12 M231 163 l26 12 M258 163 l26 12 M286 163 l22 12" stroke="#E3003B" stroke-width="9" stroke-linecap="round" opacity="0.9"/>
  </g>
</svg>