<svg xmlns="http://www.w3.org/2000/svg" viewBox="0 0 400 300">
  <defs>
    <radialGradient id="bg" cx="0.5" cy="0.32" r="0.95">
      <stop offset="0%" stop-color="#FDE8D7"/>
      <stop offset="100%" stop-color="#E9B77F"/>
    </radialGradient>
    <linearGradient id="bun" x1="0" y1="0" x2="0" y2="1">
      <stop offset="0%" stop-color="#FFC46B"/>
      <stop offset="100%" stop-color="#E8993A"/>
    </linearGradient>
    <linearGradient id="qazi" x1="0" y1="0" x2="0" y2="1">
      <stop offset="0%" stop-color="#964F3E"/>
      <stop offset="100%" stop-color="#6E312A"/>
    </linearGradient>
  </defs>
  <rect width="400" height="300" rx="28" fill="url(#bg)"/>
  <circle cx="70" cy="52" r="42" fill="#FFFFFF" opacity="0.22"/>
  <circle cx="334" cy="238" r="46" fill="#FFFFFF" opacity="0.16"/>
  <ellipse cx="200" cy="246" rx="134" ry="16" fill="#6D4016" opacity="0.18"/>
  <g>
    <rect x="86" y="112" width="228" height="40" rx="18" fill="url(#bun)"/>
    <ellipse cx="200" cy="116" rx="114" ry="11" fill="#FFD98A" opacity="0.8"/>
    <rect x="86" y="180" width="228" height="42" rx="16" fill="url(#bun)"/>
    <ellipse cx="200" cy="217" rx="114" ry="10" fill="#C77E2E" opacity="0.45"/>
    <rect x="104" y="144" width="192" height="42" rx="20" fill="url(#qazi)"/>
    <g opacity="0.7">
      <circle cx="120" cy="152" r="4" fill="#F2C18D"/>
      <circle cx="148" cy="148" r="3.5" fill="#FFE3C0"/>
      <circle cx="176" cy="178" r="5" fill="#F2C18D"/>
      <circle cx="204" cy="150" r="4" fill="#FFE3C0"/>
      <circle cx="232" cy="178" r="4.5" fill="#F2C18D"/>
      <circle cx="262" cy="154" r="4" fill="#FFE3C0"/>
    </g>
    <circle cx="128" cy="118" r="3" fill="#FFF1D6"/>
    <circle cx="160" cy="124" r="2.5" fill="#FFF1D6"/>
    <circle cx="204" cy="118" r="2.5" fill="#FFF1D6"/>
    <circle cx="244" cy="122" r="2.5" fill="#FFF1D6"/>
    <circle cx="278" cy="118" r="3" fill="#FFF1D6"/>
  </g>
  <text x="200" y="42" text-anchor="middle" font-family="Arial" font-weight="800" font-size="17" fill="#7F1D1D" opacity="0.5">QAZILIK</text>
</svg>