<svg xmlns="http://www.w3.org/2000/svg" viewBox="0 0 400 300">
  <defs>
    <radialGradient id="bg" cx="0.5" cy="0.3" r="1">
      <stop offset="0%" stop-color="#FFF3E0"/>
      <stop offset="100%" stop-color="#FFC06E"/>
    </radialGradient>
    <radialGradient id="crust" cx="0.5" cy="0.5" r="0.55">
      <stop offset="0%" stop-color="#F2C06A"/>
      <stop offset="100%" stop-color="#C98C3C"/>
    </radialGradient>
    <radialGradient id="cheese" cx="0.5" cy="0.5" r="0.6">
      <stop offset="0%" stop-color="#FFE082"/>
      <stop offset="100%" stop-color="#FFC94D"/>
    </radialGradient>
  </defs>
  <rect width="400" height="300" rx="28" fill="url(#bg)"/>
  <circle cx="70" cy="52" r="46" fill="#FFFFFF" opacity="0.22"/>
  <ellipse cx="200" cy="262" rx="150" ry="18" fill="#8A4A12" opacity="0.2"/>
  <g transform="translate(0 4)">
    <circle cx="200" cy="138" r="118" fill="url(#crust)"/>
    <circle cx="200" cy="138" r="98" fill="url(#cheese)"/>
    <circle cx="200" cy="138" r="83" fill="#E8491E" opacity="0.85"/>
    <g fill="#FFE082">
      <circle cx="158" cy="104" r="20"/>
      <circle cx="252" cy="120" r="20"/>
      <circle cx="200" cy="188" r="20"/>
    </g>
    <g>
      <circle cx="168" cy="102" r="13" fill="#D32F2F"/>
      <circle cx="226" cy="112" r="13" fill="#C62828"/>
      <circle cx="260" cy="144" r="13" fill="#D32F2F"/>
      <circle cx="252" cy="178" r="13" fill="#C62828"/>
      <circle cx="196" cy="172" r="13" fill="#D32F2F"/>
      <circle cx="208" cy="140" r="13" fill="#B71C1C"/>
      <circle cx="140" cy="140" r="13" fill="#C62828"/>
      <circle cx="238" cy="100" r="13" fill="#C62828"/>
      <circle cx="170" cy="200" r="13" fill="#D32F2F"/>
      <circle cx="162" cy="148" r="13" fill="#B71C1C"/>
    </g>
  </g>
  <text x="200" y="292" text-anchor="middle" font-family="Arial" font-weight="800" font-size="18" fill="#8A4A12" opacity="0.65">40 sm</text>
</svg>