<svg xmlns="http://www.w3.org/2000/svg" viewBox="0 0 400 300">
  <defs>
    <radialGradient id="bg" cx="0.5" cy="0.32" r="1">
      <stop offset="0%" stop-color="#FFF3E0"/>
      <stop offset="100%" stop-color="#FFD1A0"/>
    </radialGradient>
    <radialGradient id="crust" cx="0.5" cy="0.5" r="0.55">
      <stop offset="0%" stop-color="#F2C06A"/>
      <stop offset="100%" stop-color="#C98C3C"/>
    </radialGradient>
    <radialGradient id="cheese" cx="0.5" cy="0.5" r="0.6">
      <stop offset="0%" stop-color="#FFE082"/>
      <stop offset="100%" stop-color="#FFC94D"/>
    </radialGradient>
  </defs>
  <rect width="400" height="300" rx="28" fill="url(#bg)"/>
  <circle cx="70" cy="52" r="44" fill="#FFFFFF" opacity="0.22"/>
  <circle cx="336" cy="250" r="48" fill="#FFFFFF" opacity="0.15"/>
  <ellipse cx="200" cy="236" rx="120" ry="16" fill="#8A4A12" opacity="0.18"/>
  <g>
    <circle cx="200" cy="168" r="94" fill="url(#crust)"/>
    <circle cx="200" cy="168" r="78" fill="url(#cheese)"/>
    <circle cx="200" cy="168" r="66" fill="#E8491E" opacity="0.85"/>
    <g fill="#FFE082">
      <circle cx="170" cy="142" r="17"/>
      <circle cx="238" cy="156" r="18"/>
      <circle cx="202" cy="204" r="17"/>
      <circle cx="188" cy="176" r="15"/>
    </g>
    <ellipse rx="4" ry="4" fill="#C62828" opacity="0">
      <animate attributeName="opacity" values="0" dur="1s"/>
    </ellipse>
    <g>
      <circle cx="168" cy="140" r="11" fill="#D32F2F"/>
      <circle cx="210" cy="150" r="11" fill="#C62828"/>
      <circle cx="240" cy="176" r="11" fill="#D32F2F"/>
      <circle cx="232" cy="208" r="11" fill="#C62828"/>
      <circle cx="178" cy="196" r="11" fill="#D32F2F"/>
      <circle cx="192" cy="166" r="11" fill="#B71C1C"/>
      <circle cx="150" cy="172" r="11" fill="#C62828"/>
      <circle cx="222" cy="128" r="11" fill="#C62828"/>
    </g>
  </g>
  <text x="200" y="278" text-anchor="middle" font-family="Arial" font-weight="800" font-size="18" fill="#8A4A12" opacity="0.65">30 sm</text>
</svg>